<?xml version="1.0" encoding="UTF-8" standalone="no"?>
<!DOCTYPE svg PUBLIC "-//W3C//DTD SVG 1.1//EN"
 "http://www.w3.org/Graphics/SVG/1.1/DTD/svg11.dtd">
<!-- Generated by graphviz version 15.1.1 (0)
 -->
<!-- Title: metrology Pages: 1 -->
<svg width="1004pt" height="517pt"
 viewBox="0.00 0.00 1004.00 517.00" xmlns="http://www.w3.org/2000/svg" xmlns:xlink="http://www.w3.org/1999/xlink">
<g id="graph0" class="graph" transform="scale(1 1) rotate(0) translate(4 513)">
<title>metrology</title>
<polygon fill="white" stroke="none" points="-4,4 -4,-513 999.81,-513 999.81,4 -4,4"/>
<!-- ampere -->
<g id="node1" class="node">
<title>ampere</title>
<polygon fill="#1b5e20" stroke="black" points="247.12,-272.5 192.88,-272.5 192.88,-236.5 247.12,-236.5 247.12,-272.5"/>
<text xml:space="preserve" text-anchor="middle" x="220" y="-257.75" font-family="Helvetica,sans-Serif" font-size="10.00" fill="white">Ampere</text>
<text xml:space="preserve" text-anchor="middle" x="220" y="-245" font-family="Helvetica,sans-Serif" font-size="10.00" fill="white">(A)</text>
</g>
<!-- coulomb -->
<g id="node4" class="node">
<title>coulomb</title>
<polygon fill="#1565c0" stroke="black" points="183.75,-190.75 124.25,-190.75 124.25,-154.75 183.75,-154.75 183.75,-190.75"/>
<text xml:space="preserve" text-anchor="middle" x="154" y="-176" font-family="Helvetica,sans-Serif" font-size="10.00" fill="white">Coulomb</text>
<text xml:space="preserve" text-anchor="middle" x="154" y="-163.25" font-family="Helvetica,sans-Serif" font-size="10.00" fill="white">(C)</text>
</g>
<!-- ampere&#45;&gt;coulomb -->
<g id="edge2" class="edge">
<title>ampere&#45;&gt;coulomb</title>
<path fill="none" stroke="black" d="M205.68,-236.2C196.86,-225.54 185.38,-211.67 175.48,-199.71"/>
<polygon fill="black" stroke="black" points="178.33,-197.66 169.26,-192.19 172.94,-202.12 178.33,-197.66"/>
</g>
<!-- henry -->
<g id="node6" class="node">
<title>henry</title>
<polygon fill="#1565c0" stroke="black" points="331,-36 277,-36 277,0 331,0 331,-36"/>
<text xml:space="preserve" text-anchor="middle" x="304" y="-21.25" font-family="Helvetica,sans-Serif" font-size="10.00" fill="white">Henry</text>
<text xml:space="preserve" text-anchor="middle" x="304" y="-8.5" font-family="Helvetica,sans-Serif" font-size="10.00" fill="white">(H)</text>
</g>
<!-- ampere&#45;&gt;henry -->
<g id="edge7" class="edge">
<title>ampere&#45;&gt;henry</title>
<path fill="none" stroke="black" d="M192.42,-245.62C167.22,-236.78 131.45,-219.75 115,-190.75 104.85,-172.85 96.99,-98.94 117,-73 135.1,-49.53 216.22,-32.87 265.48,-24.7"/>
<polygon fill="black" stroke="black" points="265.85,-28.19 275.16,-23.15 264.74,-21.28 265.85,-28.19"/>
<text xml:space="preserve" text-anchor="middle" x="112.23" y="-129.15" font-family="Helvetica,sans-Serif" font-size="8.00">^&#45;1</text>
</g>
<!-- ohm -->
<g id="node17" class="node">
<title>ohm</title>
<polygon fill="#1565c0" stroke="black" points="252,-109 198,-109 198,-73 252,-73 252,-109"/>
<text xml:space="preserve" text-anchor="middle" x="225" y="-94.25" font-family="Helvetica,sans-Serif" font-size="10.00" fill="white">Ohm</text>
<text xml:space="preserve" text-anchor="middle" x="225" y="-81.5" font-family="Helvetica,sans-Serif" font-size="10.00" fill="white">(Ω)</text>
</g>
<!-- ampere&#45;&gt;ohm -->
<g id="edge21" class="edge">
<title>ampere&#45;&gt;ohm</title>
<path fill="none" stroke="black" d="M213.86,-236.02C206.09,-211.34 194.9,-165.05 205,-127 205.66,-124.53 206.53,-122.05 207.56,-119.61"/>
<polygon fill="black" stroke="black" points="210.65,-121.24 212.03,-110.74 204.4,-118.09 210.65,-121.24"/>
<text xml:space="preserve" text-anchor="middle" x="210.66" y="-170.03" font-family="Helvetica,sans-Serif" font-size="8.00">^&#45;1</text>
</g>
<!-- siemens -->
<g id="node21" class="node">
<title>siemens</title>
<polygon fill="#1565c0" stroke="black" points="328,-109 270,-109 270,-73 328,-73 328,-109"/>
<text xml:space="preserve" text-anchor="middle" x="299" y="-94.25" font-family="Helvetica,sans-Serif" font-size="10.00" fill="white">Siemens</text>
<text xml:space="preserve" text-anchor="middle" x="299" y="-81.5" font-family="Helvetica,sans-Serif" font-size="10.00" fill="white">(S)</text>
</g>
<!-- ampere&#45;&gt;siemens -->
<g id="edge25" class="edge">
<title>ampere&#45;&gt;siemens</title>
<path fill="none" stroke="black" d="M247.53,-244.03C270.45,-234.5 301.6,-217.37 316,-190.75 327.93,-168.7 321.04,-140.19 312.74,-119.47"/>
<polygon fill="black" stroke="black" points="316.05,-118.29 308.84,-110.53 309.63,-121.09 316.05,-118.29"/>
</g>
<!-- volt -->
<g id="node24" class="node">
<title>volt</title>
<polygon fill="#1565c0" stroke="black" points="307,-190.75 253,-190.75 253,-154.75 307,-154.75 307,-190.75"/>
<text xml:space="preserve" text-anchor="middle" x="280" y="-176" font-family="Helvetica,sans-Serif" font-size="10.00" fill="white">Volt</text>
<text xml:space="preserve" text-anchor="middle" x="280" y="-163.25" font-family="Helvetica,sans-Serif" font-size="10.00" fill="white">(V)</text>
</g>
<!-- ampere&#45;&gt;volt -->
<g id="edge31" class="edge">
<title>ampere&#45;&gt;volt</title>
<path fill="none" stroke="black" d="M233.02,-236.2C240.96,-225.64 251.27,-211.94 260.2,-200.06"/>
<polygon fill="black" stroke="black" points="262.88,-202.33 266.1,-192.23 257.29,-198.12 262.88,-202.33"/>
<text xml:space="preserve" text-anchor="middle" x="261.09" y="-210.9" font-family="Helvetica,sans-Serif" font-size="8.00">^&#45;1</text>
</g>
<!-- candela -->
<g id="node2" class="node">
<title>candela</title>
<polygon fill="#1b5e20" stroke="black" points="694.88,-427.25 639.12,-427.25 639.12,-391.25 694.88,-391.25 694.88,-427.25"/>
<text xml:space="preserve" text-anchor="middle" x="667" y="-412.5" font-family="Helvetica,sans-Serif" font-size="10.00" fill="white">Candela</text>
<text xml:space="preserve" text-anchor="middle" x="667" y="-399.75" font-family="Helvetica,sans-Serif" font-size="10.00" fill="white">(cd)</text>
</g>
<!-- lumen -->
<g id="node12" class="node">
<title>lumen</title>
<polygon fill="#1565c0" stroke="black" points="694,-345.5 640,-345.5 640,-309.5 694,-309.5 694,-345.5"/>
<text xml:space="preserve" text-anchor="middle" x="667" y="-330.75" font-family="Helvetica,sans-Serif" font-size="10.00" fill="white">Lumen</text>
<text xml:space="preserve" text-anchor="middle" x="667" y="-318" font-family="Helvetica,sans-Serif" font-size="10.00" fill="white">(lm)</text>
</g>
<!-- candela&#45;&gt;lumen -->
<g id="edge13" class="edge">
<title>candela&#45;&gt;lumen</title>
<path fill="none" stroke="black" d="M667,-390.95C667,-381.02 667,-368.31 667,-356.95"/>
<polygon fill="black" stroke="black" points="670.5,-357.28 667,-347.28 663.5,-357.28 670.5,-357.28"/>
</g>
<!-- celsius -->
<g id="node3" class="node">
<title>celsius</title>
<polygon fill="#1565c0" stroke="black" points="954.75,-427.25 865.25,-427.25 865.25,-391.25 954.75,-391.25 954.75,-427.25"/>
<text xml:space="preserve" text-anchor="middle" x="910" y="-412.5" font-family="Helvetica,sans-Serif" font-size="10.00" fill="white">Degree Celsius</text>
<text xml:space="preserve" text-anchor="middle" x="910" y="-399.75" font-family="Helvetica,sans-Serif" font-size="10.00" fill="white">(°C)</text>
</g>
<!-- farad -->
<g id="node5" class="node">
<title>farad</title>
<polygon fill="#1565c0" stroke="black" points="180,-109 126,-109 126,-73 180,-73 180,-109"/>
<text xml:space="preserve" text-anchor="middle" x="153" y="-94.25" font-family="Helvetica,sans-Serif" font-size="10.00" fill="white">Farad</text>
<text xml:space="preserve" text-anchor="middle" x="153" y="-81.5" font-family="Helvetica,sans-Serif" font-size="10.00" fill="white">(F)</text>
</g>
<!-- coulomb&#45;&gt;farad -->
<g id="edge4" class="edge">
<title>coulomb&#45;&gt;farad</title>
<path fill="none" stroke="black" d="M153.78,-154.45C153.66,-144.52 153.5,-131.81 153.36,-120.45"/>
<polygon fill="black" stroke="black" points="156.86,-120.74 153.24,-110.78 149.86,-120.83 156.86,-120.74"/>
</g>
<!-- hertz -->
<g id="node7" class="node">
<title>hertz</title>
<polygon fill="#1565c0" stroke="black" points="345,-427.25 291,-427.25 291,-391.25 345,-391.25 345,-427.25"/>
<text xml:space="preserve" text-anchor="middle" x="318" y="-412.5" font-family="Helvetica,sans-Serif" font-size="10.00" fill="white">Hertz</text>
<text xml:space="preserve" text-anchor="middle" x="318" y="-399.75" font-family="Helvetica,sans-Serif" font-size="10.00" fill="white">(Hz)</text>
</g>
<!-- joule -->
<g id="node8" class="node">
<title>joule</title>
<polygon fill="#1565c0" stroke="black" points="456,-345.5 402,-345.5 402,-309.5 456,-309.5 456,-345.5"/>
<text xml:space="preserve" text-anchor="middle" x="429" y="-330.75" font-family="Helvetica,sans-Serif" font-size="10.00" fill="white">Joule</text>
<text xml:space="preserve" text-anchor="middle" x="429" y="-318" font-family="Helvetica,sans-Serif" font-size="10.00" fill="white">(J)</text>
</g>
<!-- watt -->
<g id="node25" class="node">
<title>watt</title>
<polygon fill="#1565c0" stroke="black" points="345,-272.5 291,-272.5 291,-236.5 345,-236.5 345,-272.5"/>
<text xml:space="preserve" text-anchor="middle" x="318" y="-257.75" font-family="Helvetica,sans-Serif" font-size="10.00" fill="white">Watt</text>
<text xml:space="preserve" text-anchor="middle" x="318" y="-245" font-family="Helvetica,sans-Serif" font-size="10.00" fill="white">(W)</text>
</g>
<!-- joule&#45;&gt;watt -->
<g id="edge32" class="edge">
<title>joule&#45;&gt;watt</title>
<path fill="none" stroke="black" d="M401.85,-309.13C387.6,-300.02 369.95,-288.73 354.53,-278.86"/>
<polygon fill="black" stroke="black" points="356.84,-276.19 346.53,-273.75 353.07,-282.09 356.84,-276.19"/>
</g>
<!-- katal -->
<g id="node9" class="node">
<title>katal</title>
<polygon fill="#1565c0" stroke="black" points="58,-427.25 4,-427.25 4,-391.25 58,-391.25 58,-427.25"/>
<text xml:space="preserve" text-anchor="middle" x="31" y="-412.5" font-family="Helvetica,sans-Serif" font-size="10.00" fill="white">Katal</text>
<text xml:space="preserve" text-anchor="middle" x="31" y="-399.75" font-family="Helvetica,sans-Serif" font-size="10.00" fill="white">(kat)</text>
</g>
<!-- kelvin -->
<g id="node10" class="node">
<title>kelvin</title>
<polygon fill="#1b5e20" stroke="black" points="936,-509 882,-509 882,-473 936,-473 936,-509"/>
<text xml:space="preserve" text-anchor="middle" x="909" y="-494.25" font-family="Helvetica,sans-Serif" font-size="10.00" fill="white">Kelvin</text>
<text xml:space="preserve" text-anchor="middle" x="909" y="-481.5" font-family="Helvetica,sans-Serif" font-size="10.00" fill="white">(K)</text>
</g>
<!-- kelvin&#45;&gt;celsius -->
<g id="edge1" class="edge">
<title>kelvin&#45;&gt;celsius</title>
<path fill="none" stroke="black" d="M907.51,-472.57C906.99,-464.3 906.61,-454.26 907,-445.25 907.09,-443.19 907.21,-441.07 907.34,-438.93"/>
<polygon fill="black" stroke="black" points="910.81,-439.43 908.09,-429.19 903.83,-438.89 910.81,-439.43"/>
</g>
<!-- kelvin&#45;&gt;celsius -->
<g id="edge36" class="edge">
<title>kelvin&#45;&gt;celsius</title>
<path fill="none" stroke="#9e9e9e" stroke-dasharray="5,2" d="M909.22,-472.7C909.38,-459.32 909.62,-440.89 909.78,-427.52"/>
<text xml:space="preserve" text-anchor="middle" x="952.68" y="-447.4" font-family="Helvetica,sans-Serif" font-size="8.00" fill="#616161">historical&#45;connection</text>
</g>
<!-- kilogram -->
<g id="node11" class="node">
<title>kilogram</title>
<polygon fill="#1b5e20" stroke="black" points="464.12,-509 403.88,-509 403.88,-473 464.12,-473 464.12,-509"/>
<text xml:space="preserve" text-anchor="middle" x="434" y="-494.25" font-family="Helvetica,sans-Serif" font-size="10.00" fill="white">Kilogram</text>
<text xml:space="preserve" text-anchor="middle" x="434" y="-481.5" font-family="Helvetica,sans-Serif" font-size="10.00" fill="white">(kg)</text>
</g>
<!-- newton -->
<g id="node16" class="node">
<title>newton</title>
<polygon fill="#1565c0" stroke="black" points="456,-427.25 402,-427.25 402,-391.25 456,-391.25 456,-427.25"/>
<text xml:space="preserve" text-anchor="middle" x="429" y="-412.5" font-family="Helvetica,sans-Serif" font-size="10.00" fill="white">Newton</text>
<text xml:space="preserve" text-anchor="middle" x="429" y="-399.75" font-family="Helvetica,sans-Serif" font-size="10.00" fill="white">(N)</text>
</g>
<!-- kilogram&#45;&gt;newton -->
<g id="edge17" class="edge">
<title>kilogram&#45;&gt;newton</title>
<path fill="none" stroke="black" d="M432.92,-472.7C432.29,-462.77 431.5,-450.06 430.78,-438.7"/>
<polygon fill="black" stroke="black" points="434.3,-438.79 430.18,-429.03 427.31,-439.23 434.3,-438.79"/>
</g>
<!-- lux -->
<g id="node13" class="node">
<title>lux</title>
<polygon fill="#1565c0" stroke="black" points="669,-272.5 615,-272.5 615,-236.5 669,-236.5 669,-272.5"/>
<text xml:space="preserve" text-anchor="middle" x="642" y="-257.75" font-family="Helvetica,sans-Serif" font-size="10.00" fill="white">Lux</text>
<text xml:space="preserve" text-anchor="middle" x="642" y="-245" font-family="Helvetica,sans-Serif" font-size="10.00" fill="white">(lx)</text>
</g>
<!-- lumen&#45;&gt;lux -->
<g id="edge15" class="edge">
<title>lumen&#45;&gt;lux</title>
<path fill="none" stroke="black" d="M660.95,-309.31C658.18,-301.46 654.84,-291.97 651.74,-283.16"/>
<polygon fill="black" stroke="black" points="655.12,-282.23 648.5,-273.96 648.52,-284.55 655.12,-282.23"/>
</g>
<!-- metre -->
<g id="node14" class="node">
<title>metre</title>
<polygon fill="#1b5e20" stroke="black" points="600,-509 546,-509 546,-473 600,-473 600,-509"/>
<text xml:space="preserve" text-anchor="middle" x="573" y="-494.25" font-family="Helvetica,sans-Serif" font-size="10.00" fill="white">Metre</text>
<text xml:space="preserve" text-anchor="middle" x="573" y="-481.5" font-family="Helvetica,sans-Serif" font-size="10.00" fill="white">(m)</text>
</g>
<!-- metre&#45;&gt;joule -->
<g id="edge10" class="edge">
<title>metre&#45;&gt;joule</title>
<path fill="none" stroke="black" d="M557.59,-472.72C532.15,-444.18 481.24,-387.09 451.68,-353.94"/>
<polygon fill="black" stroke="black" points="454.57,-351.92 445.31,-346.79 449.35,-356.58 454.57,-351.92"/>
</g>
<!-- metre&#45;&gt;lux -->
<g id="edge16" class="edge">
<title>metre&#45;&gt;lux</title>
<path fill="none" stroke="black" d="M580.37,-472.7C582.63,-467.1 585.04,-460.83 587,-455 607.26,-394.83 625.76,-322.66 635.27,-283.74"/>
<polygon fill="black" stroke="black" points="638.62,-284.79 637.57,-274.24 631.81,-283.14 638.62,-284.79"/>
<text xml:space="preserve" text-anchor="middle" x="621.9" y="-365.65" font-family="Helvetica,sans-Serif" font-size="8.00">^&#45;2</text>
</g>
<!-- metre&#45;&gt;newton -->
<g id="edge18" class="edge">
<title>metre&#45;&gt;newton</title>
<path fill="none" stroke="black" d="M545.61,-484.02C524.61,-478.62 495.52,-469.29 473,-455 464.67,-449.71 456.72,-442.57 449.94,-435.54"/>
<polygon fill="black" stroke="black" points="452.9,-433.59 443.57,-428.58 447.74,-438.32 452.9,-433.59"/>
</g>
<!-- pascal -->
<g id="node18" class="node">
<title>pascal</title>
<polygon fill="#1565c0" stroke="black" points="537,-345.5 483,-345.5 483,-309.5 537,-309.5 537,-345.5"/>
<text xml:space="preserve" text-anchor="middle" x="510" y="-330.75" font-family="Helvetica,sans-Serif" font-size="10.00" fill="white">Pascal</text>
<text xml:space="preserve" text-anchor="middle" x="510" y="-318" font-family="Helvetica,sans-Serif" font-size="10.00" fill="white">(Pa)</text>
</g>
<!-- metre&#45;&gt;pascal -->
<g id="edge23" class="edge">
<title>metre&#45;&gt;pascal</title>
<path fill="none" stroke="black" d="M564.39,-472.63C558.35,-460.14 550.27,-442.84 544,-427.25 534.56,-403.76 525.3,-376.53 518.84,-356.61"/>
<polygon fill="black" stroke="black" points="522.23,-355.71 515.84,-347.26 515.56,-357.85 522.23,-355.71"/>
<text xml:space="preserve" text-anchor="middle" x="551.5" y="-406.52" font-family="Helvetica,sans-Serif" font-size="8.00">^&#45;2</text>
</g>
<!-- radian -->
<g id="node19" class="node">
<title>radian</title>
<polygon fill="#1565c0" stroke="black" points="767,-427.25 713,-427.25 713,-391.25 767,-391.25 767,-427.25"/>
<text xml:space="preserve" text-anchor="middle" x="740" y="-412.5" font-family="Helvetica,sans-Serif" font-size="10.00" fill="white">Radian</text>
<text xml:space="preserve" text-anchor="middle" x="740" y="-399.75" font-family="Helvetica,sans-Serif" font-size="10.00" fill="white">(rad)</text>
</g>
<!-- metre&#45;&gt;radian -->
<g id="edge24" class="edge">
<title>metre&#45;&gt;radian</title>
<path fill="none" stroke="black" d="M600.2,-477.01C628.02,-463.73 671.44,-442.99 702.51,-428.15"/>
<polygon fill="black" stroke="black" points="703.65,-431.49 711.16,-424.02 700.63,-425.17 703.65,-431.49"/>
<text xml:space="preserve" text-anchor="middle" x="682.25" y="-447.4" font-family="Helvetica,sans-Serif" font-size="8.00">^1, ^&#45;1</text>
</g>
<!-- steradian -->
<g id="node22" class="node">
<title>steradian</title>
<polygon fill="#1565c0" stroke="black" points="847.25,-427.25 784.75,-427.25 784.75,-391.25 847.25,-391.25 847.25,-427.25"/>
<text xml:space="preserve" text-anchor="middle" x="816" y="-412.5" font-family="Helvetica,sans-Serif" font-size="10.00" fill="white">Steradian</text>
<text xml:space="preserve" text-anchor="middle" x="816" y="-399.75" font-family="Helvetica,sans-Serif" font-size="10.00" fill="white">(sr)</text>
</g>
<!-- metre&#45;&gt;steradian -->
<g id="edge27" class="edge">
<title>metre&#45;&gt;steradian</title>
<path fill="none" stroke="black" d="M600.4,-483.36C626.66,-476.81 667.32,-466.18 702,-455 732.43,-445.19 741.75,-441.05 774.26,-427.91"/>
<polygon fill="black" stroke="black" points="775.24,-431.29 783.21,-424.31 772.62,-424.8 775.24,-431.29"/>
<text xml:space="preserve" text-anchor="middle" x="746.29" y="-447.4" font-family="Helvetica,sans-Serif" font-size="8.00">^2, ^&#45;2</text>
</g>
<!-- tesla -->
<g id="node23" class="node">
<title>tesla</title>
<polygon fill="#1565c0" stroke="black" points="505,-36 451,-36 451,0 505,0 505,-36"/>
<text xml:space="preserve" text-anchor="middle" x="478" y="-21.25" font-family="Helvetica,sans-Serif" font-size="10.00" fill="white">Tesla</text>
<text xml:space="preserve" text-anchor="middle" x="478" y="-8.5" font-family="Helvetica,sans-Serif" font-size="10.00" fill="white">(T)</text>
</g>
<!-- metre&#45;&gt;tesla -->
<g id="edge29" class="edge">
<title>metre&#45;&gt;tesla</title>
<path fill="none" stroke="black" d="M573,-472.58C573,-456.42 573,-431.71 573,-410.25 573,-410.25 573,-410.25 573,-90 573,-60.14 542.51,-41.33 516.08,-30.63"/>
<polygon fill="black" stroke="black" points="517.49,-27.42 506.9,-27.19 515.03,-33.97 517.49,-27.42"/>
<text xml:space="preserve" text-anchor="middle" x="580.5" y="-251.78" font-family="Helvetica,sans-Serif" font-size="8.00">^&#45;2</text>
</g>
<!-- mole -->
<g id="node15" class="node">
<title>mole</title>
<polygon fill="#1b5e20" stroke="black" points="54,-509 0,-509 0,-473 54,-473 54,-509"/>
<text xml:space="preserve" text-anchor="middle" x="27" y="-494.25" font-family="Helvetica,sans-Serif" font-size="10.00" fill="white">Mole</text>
<text xml:space="preserve" text-anchor="middle" x="27" y="-481.5" font-family="Helvetica,sans-Serif" font-size="10.00" fill="white">(mol)</text>
</g>
<!-- mole&#45;&gt;katal -->
<g id="edge11" class="edge">
<title>mole&#45;&gt;katal</title>
<path fill="none" stroke="black" d="M27.87,-472.7C28.37,-462.77 29,-450.06 29.57,-438.7"/>
<polygon fill="black" stroke="black" points="33.05,-439.2 30.06,-429.03 26.06,-438.84 33.05,-439.2"/>
</g>
<!-- newton&#45;&gt;joule -->
<g id="edge9" class="edge">
<title>newton&#45;&gt;joule</title>
<path fill="none" stroke="black" d="M429,-390.95C429,-381.02 429,-368.31 429,-356.95"/>
<polygon fill="black" stroke="black" points="432.5,-357.28 429,-347.28 425.5,-357.28 432.5,-357.28"/>
</g>
<!-- newton&#45;&gt;pascal -->
<g id="edge22" class="edge">
<title>newton&#45;&gt;pascal</title>
<path fill="none" stroke="black" d="M446.58,-390.95C457.61,-380.08 472.04,-365.87 484.35,-353.76"/>
<polygon fill="black" stroke="black" points="486.71,-356.34 491.38,-346.83 481.8,-351.35 486.71,-356.34"/>
</g>
<!-- second -->
<g id="node20" class="node">
<title>second</title>
<polygon fill="#1b5e20" stroke="black" points="318,-509 264,-509 264,-473 318,-473 318,-509"/>
<text xml:space="preserve" text-anchor="middle" x="291" y="-494.25" font-family="Helvetica,sans-Serif" font-size="10.00" fill="white">Second</text>
<text xml:space="preserve" text-anchor="middle" x="291" y="-481.5" font-family="Helvetica,sans-Serif" font-size="10.00" fill="white">(s)</text>
</g>
<!-- second&#45;&gt;coulomb -->
<g id="edge3" class="edge">
<title>second&#45;&gt;coulomb</title>
<path fill="none" stroke="black" d="M263.89,-485.14C209.03,-474.52 90,-447.23 90,-410.25 90,-410.25 90,-410.25 90,-253.5 90,-231.78 104.62,-212.61 119.88,-198.51"/>
<polygon fill="black" stroke="black" points="121.91,-201.38 127.19,-192.2 117.33,-196.08 121.91,-201.38"/>
</g>
<!-- second&#45;&gt;hertz -->
<g id="edge8" class="edge">
<title>second&#45;&gt;hertz</title>
<path fill="none" stroke="black" d="M296.86,-472.7C300.26,-462.66 304.61,-449.79 308.49,-438.34"/>
<polygon fill="black" stroke="black" points="311.78,-439.55 311.67,-428.95 305.15,-437.3 311.78,-439.55"/>
<text xml:space="preserve" text-anchor="middle" x="313.62" y="-447.4" font-family="Helvetica,sans-Serif" font-size="8.00">^&#45;1</text>
</g>
<!-- second&#45;&gt;katal -->
<g id="edge12" class="edge">
<title>second&#45;&gt;katal</title>
<path fill="none" stroke="black" d="M263.71,-488.58C210.29,-485.37 94.25,-476.11 61,-455 54.1,-450.62 48.42,-444.02 43.93,-437.23"/>
<polygon fill="black" stroke="black" points="47,-435.56 38.95,-428.67 40.95,-439.08 47,-435.56"/>
<text xml:space="preserve" text-anchor="middle" x="68.5" y="-447.4" font-family="Helvetica,sans-Serif" font-size="8.00">^&#45;1</text>
</g>
<!-- second&#45;&gt;newton -->
<g id="edge19" class="edge">
<title>second&#45;&gt;newton</title>
<path fill="none" stroke="black" d="M318.19,-482.63C337,-476.82 362.12,-467.58 382,-455 390.49,-449.63 398.76,-442.58 405.94,-435.66"/>
<polygon fill="black" stroke="black" points="408.2,-438.36 412.75,-428.79 403.23,-433.43 408.2,-438.36"/>
<text xml:space="preserve" text-anchor="middle" x="402.37" y="-447.4" font-family="Helvetica,sans-Serif" font-size="8.00">^&#45;2</text>
</g>
<!-- second&#45;&gt;watt -->
<g id="edge33" class="edge">
<title>second&#45;&gt;watt</title>
<path fill="none" stroke="black" d="M287.85,-472.76C285.72,-460.19 283.1,-442.73 282,-427.25 280.86,-411.29 279.93,-407.12 282,-391.25 286.96,-353.17 299.45,-310.56 308.32,-283.41"/>
<polygon fill="black" stroke="black" points="311.54,-284.81 311.39,-274.22 304.9,-282.6 311.54,-284.81"/>
<text xml:space="preserve" text-anchor="middle" x="294.16" y="-365.65" font-family="Helvetica,sans-Serif" font-size="8.00">^&#45;1</text>
</g>
<!-- weber -->
<g id="node26" class="node">
<title>weber</title>
<polygon fill="#1565c0" stroke="black" points="400,-109 346,-109 346,-73 400,-73 400,-109"/>
<text xml:space="preserve" text-anchor="middle" x="373" y="-94.25" font-family="Helvetica,sans-Serif" font-size="10.00" fill="white">Weber</text>
<text xml:space="preserve" text-anchor="middle" x="373" y="-81.5" font-family="Helvetica,sans-Serif" font-size="10.00" fill="white">(Wb)</text>
</g>
<!-- second&#45;&gt;weber -->
<g id="edge35" class="edge">
<title>second&#45;&gt;weber</title>
<path fill="none" stroke="black" d="M313.2,-472.57C326.64,-460.98 343.23,-444.73 354,-427.25 368.2,-404.2 373,-396.45 373,-369.38 373,-369.38 373,-369.38 373,-171.75 373,-154.82 373,-135.86 373,-120.68"/>
<polygon fill="black" stroke="black" points="376.5,-120.94 373,-110.94 369.5,-120.94 376.5,-120.94"/>
</g>
<!-- steradian&#45;&gt;lumen -->
<g id="edge14" class="edge">
<title>steradian&#45;&gt;lumen</title>
<path fill="none" stroke="black" d="M784.4,-391.34C760.93,-378.77 728.84,-361.6 704.14,-348.38"/>
<polygon fill="black" stroke="black" points="705.86,-345.33 695.39,-343.7 702.56,-351.5 705.86,-345.33"/>
</g>
<!-- volt&#45;&gt;farad -->
<g id="edge5" class="edge">
<title>volt&#45;&gt;farad</title>
<path fill="none" stroke="black" d="M252.76,-154.64C234.34,-143.08 209.81,-127.67 189.68,-115.03"/>
<polygon fill="black" stroke="black" points="191.81,-112.24 181.48,-109.88 188.09,-118.17 191.81,-112.24"/>
<text xml:space="preserve" text-anchor="middle" x="231.6" y="-129.15" font-family="Helvetica,sans-Serif" font-size="8.00">^&#45;1</text>
</g>
<!-- volt&#45;&gt;ohm -->
<g id="edge20" class="edge">
<title>volt&#45;&gt;ohm</title>
<path fill="none" stroke="black" d="M268.07,-154.45C260.86,-143.99 251.52,-130.46 243.39,-118.66"/>
<polygon fill="black" stroke="black" points="246.33,-116.76 237.77,-110.52 240.57,-120.74 246.33,-116.76"/>
</g>
<!-- volt&#45;&gt;siemens -->
<g id="edge26" class="edge">
<title>volt&#45;&gt;siemens</title>
<path fill="none" stroke="black" d="M281.97,-154.61C283.11,-146.22 284.77,-136.01 287,-127 287.57,-124.71 288.22,-122.36 288.92,-120.01"/>
<polygon fill="black" stroke="black" points="292.18,-121.3 291.94,-110.71 285.52,-119.13 292.18,-121.3"/>
<text xml:space="preserve" text-anchor="middle" x="294.5" y="-129.15" font-family="Helvetica,sans-Serif" font-size="8.00">^&#45;1</text>
</g>
<!-- volt&#45;&gt;weber -->
<g id="edge34" class="edge">
<title>volt&#45;&gt;weber</title>
<path fill="none" stroke="black" d="M300.18,-154.45C313.1,-143.37 330.06,-128.82 344.36,-116.56"/>
<polygon fill="black" stroke="black" points="346.4,-119.42 351.71,-110.26 341.84,-114.11 346.4,-119.42"/>
</g>
<!-- watt&#45;&gt;volt -->
<g id="edge30" class="edge">
<title>watt&#45;&gt;volt</title>
<path fill="none" stroke="black" d="M309.75,-236.2C304.87,-225.95 298.58,-212.75 293.04,-201.12"/>
<polygon fill="black" stroke="black" points="296.34,-199.91 288.88,-192.39 290.02,-202.92 296.34,-199.91"/>
</g>
<!-- weber&#45;&gt;henry -->
<g id="edge6" class="edge">
<title>weber&#45;&gt;henry</title>
<path fill="none" stroke="black" d="M356.3,-72.81C347.91,-64.18 337.58,-53.56 328.33,-44.03"/>
<polygon fill="black" stroke="black" points="331.08,-41.85 321.6,-37.11 326.06,-46.72 331.08,-41.85"/>
</g>
<!-- weber&#45;&gt;tesla -->
<g id="edge28" class="edge">
<title>weber&#45;&gt;tesla</title>
<path fill="none" stroke="black" d="M398.69,-72.63C412.03,-63.61 428.54,-52.44 443.04,-42.64"/>
<polygon fill="black" stroke="black" points="444.64,-45.78 450.96,-37.28 440.72,-39.99 444.64,-45.78"/>
</g>
</g>
</svg>
